<svg width="64" height="64" viewBox="0 0 64 64" fill="none" xmlns="http://www.w3.org/2000/svg">
<g clip-path="url(#clip0_505_2)">
<path fill-rule="evenodd" clip-rule="evenodd" d="M11.3819 19.1163C11.3819 14.0463 13.583 9.18402 17.501 5.59902C21.4189 2.01403 26.7328 0 32.2737 0C37.8145 0 43.1284 2.01403 47.0464 5.59902C50.9644 9.18402 53.1655 14.0463 53.1655 19.1163H56.6474C58.4944 19.1163 60.2657 19.7876 61.5717 20.9826C62.8776 22.1776 63.6113 23.7984 63.6113 25.4884V57.3488C63.6113 59.0388 62.8776 60.6595 61.5717 61.8545C60.2657 63.0495 58.4944 63.7209 56.6474 63.7209H7.89996C6.05301 63.7209 4.28171 63.0495 2.97572 61.8545C1.66973 60.6595 0.936035 59.0388 0.936035 57.3488V25.4884C0.936035 23.7984 1.66973 22.1776 2.97572 20.9826C4.28171 19.7876 6.05301 19.1163 7.89996 19.1163H11.3819ZM32.2737 6.37209C35.9676 6.37209 39.5102 7.71477 42.1222 10.1048C44.7341 12.4948 46.2015 15.7363 46.2015 19.1163H18.3458C18.3458 15.7363 19.8132 12.4948 22.4252 10.1048C25.0372 7.71477 28.5798 6.37209 32.2737 6.37209ZM39.2376 38.2325C39.2376 39.351 38.9158 40.4498 38.3046 41.4185C37.6934 42.3871 36.8143 43.1915 35.7557 43.7508V47.7907C35.7557 48.6357 35.3888 49.446 34.7358 50.0435C34.0828 50.641 33.1972 50.9767 32.2737 50.9767C31.3502 50.9767 30.4646 50.641 29.8116 50.0435C29.1586 49.446 28.7917 48.6357 28.7917 47.7907V43.7508C27.4642 43.0494 26.4267 41.9668 25.8401 40.6709C25.2535 39.375 25.1506 37.9382 25.5474 36.5833C25.9441 35.2284 26.8184 34.0312 28.0345 33.1773C29.2507 32.3234 30.7407 31.8605 32.2737 31.8604C34.1206 31.8604 35.8919 32.5318 37.1979 33.7268C38.5039 34.9218 39.2376 36.5425 39.2376 38.2325Z" fill="white"/>
</g>
<defs>
<clipPath id="clip0_505_2">
<rect width="64" height="64" fill="white"/>
</clipPath>
</defs>
</svg>
