<svg width="1489" height="985" viewBox="0 0 1489 985" fill="none" xmlns="http://www.w3.org/2000/svg">
<rect width="1489" height="985" fill="#2A5B96"/>
<path fill-rule="evenodd" clip-rule="evenodd" d="M834.487 362.751V273.794H850.558H866.63V363.204V376.559L864.592 388.329L860.744 402.816L856.444 414.586L850.106 427.489L845.126 434.958L839.014 443.786L832.676 450.577L824.98 458.499L813.889 467.554L801.666 475.702L787.858 482.493L774.956 486.794L770.429 488.378L764.543 489.736L755.263 491.095L744.171 492H725.837L706.596 489.284L692.11 484.983L668.342 473.212L648.197 457.368L633.71 441.749L622.618 425.225L613.338 403.269L607.679 378.596L607 328.505H639.369L642.311 386.292L647.291 401.684L654.987 415.718L663.589 426.81L671.511 434.958L682.376 442.881L689.393 448.313L706.596 437.675L723.573 431.563L735.343 430.658H744.85L760.016 434.958L769.523 439.259L778.351 444.692L783.557 448.313L797.591 440.165L809.814 428.168L820.679 412.096L828.149 396.931L833.355 379.049L834.487 362.751Z" fill="#26D64C"/>
<path d="M866.63 273.794H850.558H834.487H816.831L850.558 214L883.545 273.794H866.63Z" fill="#26D64C"/>
<path d="M660.832 318.178L662.643 305.05L666.717 307.992L669.66 310.03L678.487 313.878C681.581 314.632 687.813 316.186 687.994 316.368C688.175 316.549 694.86 317.198 698.18 317.499L706.103 318.857L714.478 321.347L720.363 324.743L725.569 329.27L728.512 333.797L731.228 339.003L733.945 346.247L735.076 354.395L734.397 361.186L731.228 367.977L728.286 372.504L724.664 368.656L719.458 363.45L713.573 358.696L707.008 353.716L703.613 352.584L704.745 354.848L708.593 358.922L714.252 364.808L719.458 370.919L723.532 376.805L727.607 382.69L733.265 391.744L734.85 395.139L737.114 399.666L739.603 403.967L741.188 408.268L743.678 413.248L745.715 410.079L747.752 405.778L749.789 402.383L752.279 398.082L754.769 395.366L757.033 392.423L759.296 388.575L762.465 386.764L767.219 382.237L770.388 377.936L766.766 378.163L763.371 379.973L759.749 382.237L757.033 384.953L753.185 387.896L752.279 386.764L750.695 381.105L750.016 377.484L749.789 372.956L750.016 371.146L750.468 370.014L752.279 365.26L755.448 360.507L757.712 357.564L762.692 353.49L766.992 351L773.557 347.605L779.442 345.567L788.044 342.851L795.966 341.946L803.888 340.814L810 340.361V341.493C809.925 342.323 809.774 344.074 809.774 344.436C809.774 344.798 809.17 346.247 808.868 346.926L808.189 350.547L807.057 356.885V366.845L806.378 372.956L805.247 380.2L801.625 386.764L797.777 390.612L790.76 395.139L781.479 398.535L769.482 400.345L765.182 400.572L758.617 399.893L754.09 407.136L750.468 417.549L748.431 423.66H738.472L737.793 421.623L736.887 417.096L735.076 411.663L732.36 405.325L729.87 398.987L726.927 393.555L725.117 389.48L722.4 385.18L719.231 381.558L715.157 382.69L707.687 383.142L699.538 383.369L692.748 382.69L688.221 382.237L681.656 379.294L678.261 377.71L674.639 375.22L670.565 371.146L665.585 363.45L661.511 351.453L659.7 339.229V328.364L660.832 318.178Z" fill="#26D64C"/>
<path d="M520.344 660.536C514.627 660.536 509.464 659.384 504.856 657.08C500.333 654.776 496.749 650.979 494.104 645.688C491.459 640.397 490.136 633.272 490.136 624.312V575.032H500.76V624.568C500.76 631.309 501.613 636.643 503.32 640.568C505.112 644.408 507.459 647.139 510.36 648.76C513.347 650.381 516.675 651.192 520.344 651.192C524.099 651.192 527.469 650.381 530.456 648.76C533.443 647.139 535.789 644.408 537.496 640.568C539.288 636.643 540.184 631.309 540.184 624.568V575.032H550.424V624.312C550.424 633.272 549.101 640.397 546.456 645.688C543.811 650.979 540.227 654.776 535.704 657.08C531.181 659.384 526.061 660.536 520.344 660.536ZM580.06 659V575.032H603.996C610.311 575.032 615.815 575.8 620.508 577.336C625.201 578.872 628.871 581.475 631.516 585.144C634.161 588.728 635.484 593.592 635.484 599.736C635.484 608.525 632.625 615.053 626.908 619.32C621.191 623.587 613.724 625.72 604.508 625.72H590.684V659H580.06ZM590.684 617.016H603.228C610.567 617.016 615.985 615.651 619.484 612.92C623.068 610.104 624.86 605.709 624.86 599.736C624.86 593.677 622.983 589.496 619.228 587.192C615.559 584.803 610.055 583.608 602.716 583.608H590.684V617.016ZM691.344 660.536C684.347 660.536 678.075 658.829 672.528 655.416C667.067 651.917 662.715 646.925 659.472 640.44C656.315 633.955 654.736 626.147 654.736 617.016C654.736 607.971 656.357 600.205 659.6 593.72C662.843 587.235 667.28 582.243 672.912 578.744C678.544 575.245 684.901 573.496 691.984 573.496C697.104 573.496 701.627 574.563 705.552 576.696C709.477 578.744 712.635 581.133 715.024 583.864L709.264 590.776C707.045 588.387 704.528 586.467 701.712 585.016C698.896 583.565 695.696 582.84 692.112 582.84C686.821 582.84 682.171 584.248 678.16 587.064C674.235 589.795 671.163 593.677 668.944 598.712C666.811 603.747 665.744 609.763 665.744 616.76C665.744 623.757 666.811 629.859 668.944 635.064C671.077 640.184 674.064 644.152 677.904 646.968C681.829 649.784 686.437 651.192 691.728 651.192C695.739 651.192 699.323 650.339 702.48 648.632C705.637 646.925 708.539 644.621 711.184 641.72L717.072 648.376C713.744 652.216 709.989 655.203 705.808 657.336C701.627 659.469 696.805 660.536 691.344 660.536ZM752.458 659V626.488L727.242 575.032H738.634L749.514 598.712C750.879 601.784 752.202 604.813 753.482 607.8C754.847 610.787 756.213 613.859 757.578 617.016H758.09C759.541 613.859 760.991 610.787 762.442 607.8C763.893 604.813 765.258 601.784 766.538 598.712L777.29 575.032H788.426L763.21 626.488V659H752.458ZM836.799 660.536C829.802 660.536 823.53 658.829 817.983 655.416C812.522 651.917 808.17 646.925 804.927 640.44C801.77 633.955 800.191 626.147 800.191 617.016C800.191 607.971 801.812 600.205 805.055 593.72C808.298 587.235 812.735 582.243 818.367 578.744C823.999 575.245 830.356 573.496 837.439 573.496C842.559 573.496 847.082 574.563 851.007 576.696C854.932 578.744 858.09 581.133 860.479 583.864L854.719 590.776C852.5 588.387 849.983 586.467 847.167 585.016C844.351 583.565 841.151 582.84 837.567 582.84C832.276 582.84 827.626 584.248 823.615 587.064C819.69 589.795 816.618 593.677 814.399 598.712C812.266 603.747 811.199 609.763 811.199 616.76C811.199 623.757 812.266 629.859 814.399 635.064C816.532 640.184 819.519 644.152 823.359 646.968C827.284 649.784 831.892 651.192 837.183 651.192C841.194 651.192 844.778 650.339 847.935 648.632C851.092 646.925 853.994 644.621 856.639 641.72L862.527 648.376C859.199 652.216 855.444 655.203 851.263 657.336C847.082 659.469 842.26 660.536 836.799 660.536ZM885.22 659V575.032H895.844V649.912H932.58V659H885.22ZM954.51 659V575.032H1002.89V583.992H965.134V610.36H997.006V619.448H965.134V649.912H1004.17V659H954.51Z" fill="white"/>
</svg>
